<?xml version="1.0" encoding="utf-8"?>
<!-- Generator: Adobe Illustrator 21.0.2, SVG Export Plug-In . SVG Version: 6.00 Build 0)  -->
<svg version="1.1" id="Слой_1" xmlns="http://www.w3.org/2000/svg" xmlns:xlink="http://www.w3.org/1999/xlink" x="0px" y="0px"
	 viewBox="0 0 188 188" style="enable-background:new 0 0 188 188;" xml:space="preserve">
<style type="text/css">
	.st0{fill:#FFD5D5;stroke:#FF8080;stroke-width:11.4403;stroke-linecap:round;stroke-linejoin:round;}
	.st1{clip-path:url(#SVGID_2_);}
	.st2{fill:#FFFFFF;stroke:#000000;stroke-width:3.5287;stroke-linecap:round;stroke-linejoin:round;}
	.st3{fill:#FFFFFF;fill-opacity:9.615383e-02;stroke:#000000;stroke-width:3.5287;stroke-linecap:round;stroke-linejoin:round;}
</style>
<g id="g3488" transform="matrix(0,0.283393,-0.283393,0,227.46772,497.158)">
	
		<path id="use3420" sodipodi:cx="-126.15619" sodipodi:cy="-211.35745" sodipodi:rx="343.83746" sodipodi:ry="343.83746" sodipodi:type="arc" class="st0" d="
		M-1423.5,169.4c166,0,300.5,134.6,300.5,300.5s-134.6,300.5-300.5,300.5S-1724,636-1724,470S-1589.4,169.4-1423.5,169.4z"/>
	<g>
		<defs>
			<circle id="SVGID_1_" cx="-1423.5" cy="470" r="85.2"/>
		</defs>
		<clipPath id="SVGID_2_">
			<use xlink:href="#SVGID_1_"  style="overflow:visible;"/>
		</clipPath>
		<g id="g3267" class="st1">
			<path id="path2432" inkscape:connector-curvature="0" sodipodi:nodetypes="csssssssssssscscsssssssssscc" class="st2" d="
				M-1322.5,784.9c0,0-34.9-81.5-44.4-106.8c-4.5-11.9-5.9-29.6-12.2-40.7c-7.3-12.9-20.4-29.2-33.3-36.7
				c-5.6-3.3-55.3-13.7-78.1-19.7c-4.2-1.1-29.3-11.5-42.1-19.7c-16.7-10.6-37.8-32.3-53.6-44.1c-5.2-3.9-13.7-6.9-18.3-11.5
				c-9.2-9.2-18.7-24.4-23.1-36.7c-2.2-6-3.1-12.4-0.7-18.3c0.9-2.1,4.4-5.2,4.1-7.5c-2.3-16.1-4.8-48.1,4.1-65.8
				c4.1-8.1,14.8-15.9,23.1-19.7c7.3-3.3,16.5,1.4,21.7,2.5c3.5-7.2,38.2-33.8,51.6-38.4c5.2-1.8,8.6,0.2,13.9-1.4
				c5.4-4.3,16.6-11.1,24.2-14.3c8.9-3.7,21.8-5.7,31.2-7.5c12.9-2.4,30.7-9.3,43.4-6.1c10,2.5,15.5,15.3,25.1,19
				c1.7,0.7,7.5,2.1,8.8,3.4c20,19.3,35.7,49.1,65.2,80.1c14.3,15.1,30.7,29.7,41.4,47.5c5,8.3,12.3,24.5,16.3,33.3
				c7.1,15.7,19.8,30,27.1,47.5c4.5,10.7,15,40.1,22.4,55.7c14.1,29.4,42.1,69.7,50.2,88.9C-1154.5,667.8-1322.5,784.9-1322.5,784.9
				z"/>
			<path id="path3224" inkscape:connector-curvature="0" sodipodi:nodetypes="cc" class="st3" d="M-1574.7,359.3
				c-2.4,4.5-4.8,12-7.3,18.6"/>
			<path id="path3226" inkscape:connector-curvature="0" sodipodi:nodetypes="czc" class="st3" d="M-1591.1,428.3
				c1.8-4.8-5.4-26-1.3-38.2c4-12.2,22.1-16.9,26.7-24"/>
			<path id="path3228" inkscape:connector-curvature="0" sodipodi:nodetypes="czcc" class="st3" d="M-1547.2,377.1
				c4.9-7,3.2-24.2,8.6-32.1s20.3-10.4,28.8-17.2l0,0"/>
			<path id="path3230" inkscape:connector-curvature="0" sodipodi:nodetypes="cc" class="st3" d="M-1508.7,319.4
				c-7.4,6-10.2,10.2-14.3,14.8"/>
			<path id="path3232" inkscape:connector-curvature="0" sodipodi:nodetypes="czcc" class="st3" d="M-1478.5,308.9
				c2.1,1,12.1-7.2,17.5-8.9s15.8,0.6,18.6,0l0,0"/>
		</g>
	</g>
</g>
</svg>
