<svg xmlns="http://www.w3.org/2000/svg" xmlns:xlink="http://www.w3.org/1999/xlink" id="Слой_1" data-name="Слой 1" viewBox="0 0 181.79 181.79"><defs><clipPath id="clip-path" transform="translate(-9 -6)"><path d="M185.07,96.89a85.17,85.17,0,0,1-170.35,0v0a85.17,85.17,0,0,1,170.35,0Z" fill="none"/></clipPath></defs><title>Безымянный-10</title><g id="g3457"><path id="path3414" d="M185.07,96.89A85.17,85.17,0,1,1,99.89,11.72,85.17,85.17,0,0,1,185.07,96.89Z" transform="translate(-9 -6)" fill="#d7f4d7" stroke="#87de87" stroke-linecap="round" stroke-linejoin="round" stroke-width="11.44"/><g clip-path="url(#clip-path)"><g id="g3384"><path id="path3382" d="M104.28,69.77c-1.28.21-7.72,1.29-10.79,2.17C89.72,73,84.88,75,81.15,76.21c-3.09,1-7.44,1-9.61,3.45-2.43,2.71-1.8,11.52-1.92,12l16.49,7.54C85.95,97.69,95,88.58,96,87.27c0,0,7.28-.51,8.7-1.11s10.79-3.42,10.79-3.42l0-.14c-.09-.26,8.05,1.36,9,1.32S132,84,132,84c3.78,2.41,7.34,2.32,9.07,2.63,9.1,1.61,9-4.08,8.46-5.37-.31-.73-10-5.15-14.4-7.22a23.13,23.13,0,0,0-3.29-1.52c-.91-.27-2.54-.43-3.48-.58-1.53-.25-5-1.39-6.49-1.65-2-.34-4.64-.57-6.65-.79-1.37-.15-3.82-1.21-5.19-1.13C109,68.4,106.69,69.39,104.28,69.77Z" transform="translate(-9 -6)" fill="#fff" stroke="#000" stroke-linecap="round" stroke-linejoin="round" stroke-width="3.53"/><path id="path3380" d="M102.81,61.29c-1.51.24-9.11,1.53-12.74,2.56-4.45,1.27-10.16,3.61-14.55,5-3.64,1.19-8.78,1.22-11.34,4.08-2.87,3.2-2.12,13.6-2.26,14.17L81.37,96c-.2-1.77,10.91-11,12.17-12.52,0,0,8.14-2.16,9.82-2.87s12.73-4,12.73-4l-.06-.17c-.1-.3,9.5,1.6,10.61,1.55s8.89,0,8.89,0c4.46,2.85,8.67,2.74,10.71,3.11,10.74,1.9,10.63-4.82,10-6.34-.37-.87-11.84-6.08-17-8.53a27.29,27.29,0,0,0-3.89-1.8c-1.07-.31-3-.5-4.1-.69-1.8-.3-5.86-1.64-7.66-1.95-2.35-.4-5.48-.67-7.85-.93-1.62-.18-4.51-1.43-6.13-1.33C108.37,59.67,105.65,60.83,102.81,61.29Z" transform="translate(-9 -6)" fill="#fff" stroke="#000" stroke-linecap="round" stroke-linejoin="round" stroke-width="3.53"/><path id="path3378" d="M108.41,56c-1.51.24-9.11,1.53-12.74,2.56a118.08,118.08,0,0,0-14.55,5c-5.75,2.59-18.91,4.1-19,7.93A223.38,223.38,0,0,1,59.81,95.9L84.17,83.07C84,81.29,94,79.45,95.29,77.91c0,0,12-1.81,13.67-2.52s12.73-4,12.73-4l-.06-.17c-.1-.3,9.5,1.6,10.61,1.55s8.89,0,8.89,0c4.46,2.85,8.67,2.74,10.71,3.11,10.74,1.9,10.63-4.82,10-6.34-.37-.87-11.84-6.08-17-8.53a27.29,27.29,0,0,0-3.89-1.8c-1.07-.31-3-.5-4.1-.69-1.8-.3-5.86-1.64-7.66-1.95-2.35-.4-5.48-.67-7.85-.93-1.62-.18-4.51-1.43-6.13-1.33C114,54.41,111.26,55.58,108.41,56Z" transform="translate(-9 -6)" fill="#fff" stroke="#000" stroke-linecap="round" stroke-linejoin="round" stroke-width="3.53"/><path id="path3373" d="M103.6,58.43c-1.51.24-9.11,1.53-12.74,2.56-4.45,1.27-10.16,3.61-14.55,5C72.67,67.21,67.54,67.25,65,70.1c-2.87,3.2-2.12,13.6-2.26,14.17s-10.6,34.58-10.6,34.58l-29,31.73L50.26,174.1s20.36-21.27,23.67-23.26c5.06-3,11.15-1.79,17.91-6.88,6.93-5.22,15.93-12.46,17.75-13.45s12.06-8.83,12.06-8.83,10.08-6.85,11.9-7.41,8.81-6.2,8.81-6.2,2.25-7.52,3.21-9.68c2.14-4.86,7.77-9.93,4.24-13.89-2.42-2.71-10.66-.93-12.07.32-1.09,1-7.06,7.64-8.5,11.9a3.44,3.44,0,0,1-1.12,1.66s-7.92,4.83-11.76,5.37c-3.42.48-7,1.61-10.12.11-5.36-2.59-16.76-12-17-14.54-.2-1.77,2.15-6.77,3.41-8.31,0,0,9.89-2.52,11.57-3.22s12.73-4,12.73-4l-.06-.17c-.1-.3,9.5,1.6,10.61,1.55s8.89,0,8.89,0C140.8,78,145,77.93,147,78.29c10.74,1.9,10.63-4.82,10-6.34-.37-.87-11.84-6.08-17-8.53a27.29,27.29,0,0,0-3.89-1.8c-1.07-.31-3-.5-4.1-.69-1.8-.3-5.86-1.64-7.66-1.95-2.35-.4-5.48-.67-7.85-.93-1.62-.18-4.51-1.43-6.13-1.33C109.16,56.81,106.45,58,103.6,58.43Z" transform="translate(-9 -6)" fill="#fff" stroke="#000" stroke-linecap="round" stroke-linejoin="round" stroke-width="3.53"/></g></g></g></svg>