<svg xmlns="http://www.w3.org/2000/svg" xmlns:xlink="http://www.w3.org/1999/xlink" id="Слой_1" data-name="Слой 1" viewBox="0 0 181.89 181.79"><defs><clipPath id="clip-path" transform="translate(-4.28 -2.87)"><circle cx="95.28" cy="93.76" r="85.17" fill="none"/></clipPath></defs><title>Безымянный-11</title><g id="g3488"><path id="use3420" d="M180.45,93.76A85.17,85.17,0,1,1,95.28,8.59,85.17,85.17,0,0,1,180.45,93.76Z" transform="translate(-4.28 -2.87)" fill="#ffd5d5" stroke="#ff8080" stroke-linecap="round" stroke-linejoin="round" stroke-width="11.44"/><g clip-path="url(#clip-path)"><g id="g3267"><path id="path2432" d="M6,122.37s23.09-9.88,30.27-12.58c3.38-1.27,8.39-1.68,11.54-3.46,3.66-2.07,8.27-5.79,10.39-9.43.93-1.59,3.89-15.66,5.58-22.12A72,72,0,0,1,69.4,62.86c3-4.72,9.15-10.7,12.5-15.2,1.1-1.48,2-3.89,3.27-5.19a31.53,31.53,0,0,1,10.39-6.54,7.19,7.19,0,0,1,5.19-.19c.61.25,1.46,1.25,2.12,1.15,4.57-.65,13.64-1.35,18.66,1.15,2.31,1.15,4.51,4.19,5.58,6.54.94,2.06-.41,4.68-.7,6.16,2,1,9.58,10.83,10.89,14.62.51,1.47-.07,2.43.38,3.93a36,36,0,0,1,4,6.85A49.15,49.15,0,0,1,143.84,85c.69,3.66,2.64,8.69,1.73,12.31-.71,2.84-4.32,4.38-5.39,7.12a11.89,11.89,0,0,1-1,2.5c-5.48,5.68-13.9,10.13-22.7,18.47-4.27,4-8.42,8.71-13.46,11.73-2.35,1.41-6.93,3.48-9.43,4.62-4.45,2-8.51,5.62-13.46,7.69-3,1.27-11.38,4.24-15.77,6.35-8.32,4-19.75,11.93-25.2,14.23Z" transform="translate(-4.28 -2.87)" fill="#fff" stroke="#000" stroke-linecap="round" stroke-linejoin="round" stroke-width="3.53"/><path id="path3224" d="M126.64,50.9a49.46,49.46,0,0,0-5.27-2.06" transform="translate(-4.28 -2.87)" fill="#fff" fill-opacity="0.1" stroke="#000" stroke-linecap="round" stroke-linejoin="round" stroke-width="3.53"/><path id="path3226" d="M107.1,46.24c1.36.51,7.37-1.52,10.84-.38s4.78,6.27,6.79,7.56" transform="translate(-4.28 -2.87)" fill="#fff" fill-opacity="0.1" stroke="#000" stroke-linecap="round" stroke-linejoin="round" stroke-width="3.53"/><path id="path3228" d="M121.6,58.68c2,1.38,6.86.92,9.08,2.44s3,5.77,4.88,8.17h0" transform="translate(-4.28 -2.87)" fill="#fff" fill-opacity="0.1" stroke="#000" stroke-linecap="round" stroke-linejoin="round" stroke-width="3.53"/><path id="path3230" d="M137.94,69.6a26.64,26.64,0,0,0-4.2-4" transform="translate(-4.28 -2.87)" fill="#fff" fill-opacity="0.1" stroke="#000" stroke-linecap="round" stroke-linejoin="round" stroke-width="3.53"/><path id="path3232" d="M140.91,78.15c-.29.58,2,3.42,2.52,5s-.16,4.49,0,5.27h0" transform="translate(-4.28 -2.87)" fill="#fff" fill-opacity="0.1" stroke="#000" stroke-linecap="round" stroke-linejoin="round" stroke-width="3.53"/></g></g></g></svg>